<svg width="380" height="410" viewBox="0 0 380 410" fill="none" xmlns="http://www.w3.org/2000/svg">
<path d="M375.923 147.204C369.481 145.012 363.515 141.441 358.381 136.706C353.247 131.97 349.05 126.167 346.041 119.643C343.032 113.118 341.272 106.007 340.867 98.7323C340.462 91.458 341.419 84.1701 343.682 77.3038C347.504 80.3932 351.035 83.8805 354.225 87.7163C365.097 100.761 371.766 117.43 374.613 135.302C375.226 139.223 375.663 143.191 375.923 147.204Z" stroke="#F9CAC8" stroke-width="5.02" stroke-miterlimit="10"/>
<path d="M93.6922 342.947V262.268C93.6905 261.962 93.7446 261.658 93.8519 261.374C93.9592 261.09 94.1174 260.832 94.3174 260.614C94.5175 260.397 94.7554 260.224 95.0173 260.106C95.2797 259.988 95.5608 259.927 95.8447 259.927H170.213C170.878 259.925 171.536 260.066 172.15 260.34C172.765 260.614 173.323 261.016 173.792 261.523C174.263 262.03 174.635 262.632 174.889 263.295C175.143 263.957 175.273 264.668 175.272 265.385V313.345" stroke="#F9CAC8" stroke-width="5.02" stroke-miterlimit="10"/>
<path d="M93.6923 342.947V301.909H175.258V313.345" stroke="#F9CAC8" stroke-width="5.02" stroke-miterlimit="10"/>
<path d="M155.217 344.621H94.5206" stroke="#F9CAC8" stroke-width="5.02" stroke-miterlimit="10"/>
<path d="M134.479 329.671C137.762 329.671 140.423 326.8 140.423 323.258C140.423 319.716 137.762 316.844 134.479 316.844C131.196 316.844 128.535 319.716 128.535 323.258C128.535 326.8 131.196 329.671 134.479 329.671Z" stroke="#F9CAC8" stroke-width="5.02" stroke-miterlimit="10"/>
<path d="M134.479 288.681C137.762 288.681 140.423 285.809 140.423 282.267C140.423 278.725 137.762 275.854 134.479 275.854C131.196 275.854 128.535 278.725 128.535 282.267C128.535 285.809 131.196 288.681 134.479 288.681Z" stroke="#F9CAC8" stroke-width="5.02" stroke-miterlimit="10"/>
<path d="M134.479 372.883C137.762 372.883 140.423 370.011 140.423 366.469C140.423 362.927 137.762 360.056 134.479 360.056C131.196 360.056 128.535 362.927 128.535 366.469C128.535 370.011 131.196 372.883 134.479 372.883Z" stroke="#F9CAC8" stroke-width="5.02" stroke-miterlimit="10"/>
<path d="M170.217 259.911H86.6685V251C87.766 250.717 182.034 251 182.034 251V259.911H170.217Z" stroke="#F9CAC8" stroke-width="5.02" stroke-miterlimit="10"/>
<path d="M150.059 224.866L146.225 248.071C146.118 248.721 145.802 249.31 145.333 249.735C144.863 250.16 144.271 250.393 143.658 250.393H123.568C122.949 250.394 122.351 250.157 121.88 249.725C121.408 249.293 121.094 248.695 120.994 248.036L117.454 224.881L150.059 224.866Z" stroke="#F9CAC8" stroke-width="5.02" stroke-miterlimit="10"/>
<path d="M153.723 222.276C153.67 222.981 153.373 223.639 152.89 224.119C152.409 224.599 151.777 224.866 151.121 224.866H116.463C115.813 224.866 115.188 224.605 114.707 224.134C114.226 223.663 113.926 223.016 113.864 222.318C113.829 221.927 113.87 221.533 113.985 221.16C114.1 220.788 114.285 220.445 114.53 220.154C114.775 219.863 115.073 219.631 115.406 219.473C115.739 219.314 116.099 219.232 116.463 219.232H151.121C151.482 219.232 151.839 219.312 152.169 219.468C152.499 219.624 152.796 219.853 153.041 220.139C153.285 220.425 153.472 220.762 153.59 221.13C153.707 221.498 153.752 221.889 153.723 222.276Z" stroke="#F9CAC8" stroke-width="5.02" stroke-miterlimit="10"/>
<path d="M134.875 219.232C134.875 218.047 137.675 203.246 135.353 190.122C134.082 182.925 131.268 176.233 125.607 172.551" stroke="#F9CAC8" stroke-width="5.02" stroke-miterlimit="10"/>
<path d="M135.353 190.123C135.353 190.123 135.994 180.157 143.984 179.466" stroke="#F9CAC8" stroke-width="5.02" stroke-miterlimit="10"/>
<path d="M136.203 205.336C136.203 205.336 139.191 202.742 143.991 202.914" stroke="#F9CAC8" stroke-width="5.02" stroke-miterlimit="10"/>
<path d="M136.203 198.258C136.203 198.258 130.4 190.844 121.132 196.707" stroke="#F9CAC8" stroke-width="5.02" stroke-miterlimit="10"/>
<path d="M132.121 195.276C132.121 195.276 119.058 182.396 116.498 199.81C116.498 199.81 120.173 202.396 125.607 199.81C131.041 197.224 132.121 195.276 132.121 195.276Z" stroke="#F9CAC8" stroke-width="5.02" stroke-miterlimit="10"/>
<path d="M138.228 182.503C138.228 182.503 137.753 176.708 143.984 174.81C150.215 172.911 153.73 180.845 153.73 180.845C153.73 180.845 148.93 186.574 138.228 182.503Z" stroke="#F9CAC8" stroke-width="5.02" stroke-miterlimit="10"/>
<path d="M139.669 202.907C139.669 202.907 139.456 197.048 146.699 198.259C153.943 199.47 155.118 206.131 155.118 206.131C155.118 206.131 143.251 210.829 139.669 203.522" stroke="#F9CAC8" stroke-width="5.02" stroke-miterlimit="10"/>
<path d="M130.942 177.987C130.942 178.403 125.494 177.463 125.147 177.352C122.506 176.505 120.633 174.53 119.401 171.921C119.022 171.115 116.824 166.573 117.447 165.786C117.447 165.786 130.407 161.291 130.942 177.987Z" stroke="#F9CAC8" stroke-width="5.02" stroke-miterlimit="10"/>
<path d="M131.689 96.544H135.898C146.189 96.5447 156.058 100.956 163.335 108.808C170.611 116.66 174.699 127.308 174.699 138.412V212.491H92.8851V138.412C92.8851 127.307 96.9733 116.658 104.25 108.807C111.528 100.955 121.398 96.544 131.689 96.544Z" stroke="#F9CAC8" stroke-width="5.02" stroke-miterlimit="10"/>
<path d="M140.16 195.275H140.132" stroke="#F9CAC8" stroke-width="5.02" stroke-miterlimit="10"/>
<path d="M118.318 195.275H105.039V144.798C105.038 140.723 105.782 136.688 107.226 132.923C108.671 129.158 110.79 125.737 113.46 122.856C116.13 119.974 119.3 117.689 122.79 116.129C126.279 114.569 130.019 113.767 133.795 113.767C141.423 113.767 148.739 117.036 154.132 122.855C159.526 128.675 162.556 136.568 162.556 144.798V195.275H136.688" stroke="#F9CAC8" stroke-width="5.02" stroke-miterlimit="10"/>
<path d="M224.516 347.337C224.516 342.419 223.618 337.549 221.873 333.006C220.128 328.462 217.57 324.335 214.346 320.859C211.121 317.382 207.294 314.625 203.082 312.746C198.87 310.866 194.356 309.901 189.798 309.904C189.521 309.904 189.21 309.904 188.923 309.931C179.937 310.178 171.39 314.178 165.084 321.09C158.777 328.001 155.203 337.284 155.114 346.982C154.927 367.784 171.293 384.797 190.569 384.797H330.431C331.008 384.797 331.568 384.77 332.131 384.716C343.413 383.8 352.444 373.704 352.419 361.317C352.419 352.933 350.384 342.284 345.735 329.167C345.523 328.559 345.3 327.941 345.073 327.322C328.435 281.948 352.097 237.639 352.097 237.639C352.858 236.306 353.609 234.966 354.345 233.598C355.63 231.211 356.894 228.812 358.105 226.387C361.951 218.738 365.331 210.827 368.223 202.705C372.421 190.77 374.996 178.242 375.869 165.512C376.293 159.424 376.31 153.311 375.919 147.22C375.657 143.206 375.221 139.239 374.609 135.318C371.777 117.461 365.09 100.784 354.218 87.7358C347.62 79.7939 339.585 73.3932 330.608 68.9276C324.979 66.1075 319.069 63.9956 312.992 62.6328C307.196 61.276 301.182 61.4448 295.459 63.1247C289.736 64.805 284.472 67.9467 280.111 72.2851C274.252 78.1063 270.33 85.5891 265.756 92.5027L265.671 92.6402" stroke="#F9CAC8" stroke-width="5.02" stroke-miterlimit="10"/>
<path d="M188.923 309.919C188.845 308.8 188.835 287.421 188.835 286.275C188.835 254.477 214.519 228.705 246.186 228.705H332.17C339.789 228.692 347.332 230.342 354.345 233.556" stroke="#F9CAC8" stroke-width="5.02" stroke-miterlimit="10"/>
<path d="M194.956 384.766H115.032C113.419 384.773 111.85 384.191 110.581 383.115C109.313 382.039 108.419 380.531 108.044 378.838C106.752 372.864 103.247 362.478 94.5207 344.621C94.2481 344.067 93.979 343.517 93.6922 342.948C89.1431 333.735 83.2416 322.608 75.6373 309.186C44.5616 254.469 77.2339 205.764 92.878 187.208" stroke="#F9CAC8" stroke-width="5.02" stroke-miterlimit="10"/>
<path d="M345.736 329.139H220.194" stroke="#F9CAC8" stroke-width="5.02" stroke-miterlimit="10"/>
<path d="M174.699 137.797C174.699 137.797 198.627 151.276 224.378 137.797" stroke="#F9CAC8" stroke-width="5.02" stroke-miterlimit="10"/>
<path d="M316.302 178.269C316.299 178.279 316.299 178.29 316.302 178.299C316.274 178.074 316.246 177.853 316.203 177.627L316.302 178.269Z" fill="#2E2E2E"/>
<path d="M217.761 377.558L250.154 377.989C250.154 377.038 250.154 376.19 250.126 375.621C250.016 373.387 247.021 307.096 247.021 307.096C247.021 307.096 246.189 282.161 267.427 267.753C267.427 267.753 269.703 283.337 275.215 305.4C280.727 327.462 291.284 350.892 298.393 362.871C304.524 373.184 307.7 376.309 306.928 377.004H328.905L323.273 361.752C323.273 361.752 317.103 344.976 313.665 328.574C310.228 312.172 303.6 284.017 309.466 260.438C315.279 237.062 320.54 206.348 316.317 178.384C316.398 178.995 316.441 182.051 308.9 182.734C300.492 183.498 301.182 187.876 300.403 190.049C299.625 192.223 298.237 208.701 269.296 219.022L265.115 221.069C265.115 221.069 250.09 227.979 248.71 229.946C247.329 231.913 244.692 233.208 244.348 230.377C244.005 227.547 242.968 223.154 240.592 228.41C238.217 233.666 218.115 270.496 214.441 284.781C210.766 299.067 217.868 320.744 217.868 320.744L229.161 377.634C229.161 377.634 222.056 377.233 217.761 377.558Z" fill="#2E2E2E"/>
<path d="M243.237 223.525L221.351 267.833C214.366 281.966 212.239 292.382 215.361 308.07L229.168 377.637H216.512C216.088 377.637 215.669 377.728 215.278 377.903C214.887 378.077 214.532 378.334 214.233 378.657C213.933 378.98 213.696 379.364 213.534 379.786C213.373 380.208 213.29 380.66 213.29 381.117C213.29 381.574 213.373 382.026 213.534 382.448C213.696 382.87 213.933 383.254 214.233 383.576C214.532 383.899 214.887 384.155 215.278 384.33C215.67 384.504 216.089 384.594 216.512 384.593H250.568L247.028 312.523C246.686 305.415 247.593 298.301 249.701 291.557C252.756 281.782 259.153 273.631 267.423 268.459" stroke="black" stroke-width="5.02" stroke-miterlimit="10"/>
<path d="M238.73 74.0036L222.038 105.52L236.765 115.451L246.83 79.6988L242.56 73.721C242.329 73.3959 242.027 73.1373 241.68 72.9685C241.334 72.8 240.954 72.7263 240.575 72.7542C240.196 72.7821 239.829 72.9108 239.507 73.1289C239.185 73.347 238.918 73.6476 238.73 74.0036Z" stroke="black" stroke-width="5.02" stroke-miterlimit="10"/>
<path d="M224.782 107.888C224.782 107.888 215.474 146.734 247.414 204.679" stroke="black" stroke-width="5.02" stroke-miterlimit="10"/>
<path d="M228.368 253.617C226.64 256.776 225.26 258.965 224.569 259.309C222.374 260.454 223.408 253.453 224.183 249.893M224.183 249.893C224.456 249.294 224.651 248.658 224.764 248.002C224.764 247.54 224.502 248.434 224.183 249.893ZM224.183 249.893C223.317 252.059 222.325 254.164 221.213 256.195C219.613 259.114 217.694 262.036 215.928 263.453C215.028 264.182 214.158 264.511 213.414 264.274C208.886 262.815 214.352 251.761 215.928 248.797C216.175 248.319 216.328 248.052 216.328 248.052C218.233 245.152 219.87 242.057 221.217 238.812C222.894 234.79 224.271 230.63 225.334 226.371" stroke="black" stroke-width="5.02" stroke-miterlimit="10"/>
<path d="M228.849 206.455C230.867 188.327 230.134 170.344 229.058 160.497" stroke="black" stroke-width="5.02" stroke-miterlimit="10"/>
<path d="M231.653 214.259L229.713 218.342C229.741 218.342 229.756 218.311 229.78 218.342L231.653 214.259Z" fill="black"/>
<path d="M224.955 214.075L224.916 214.194C224.929 214.152 224.947 214.112 224.969 214.075H224.955Z" fill="black"/>
<path d="M246.826 79.6984C249.269 81.0544 251.63 82.4715 253.907 83.9001C255.564 84.9428 257.178 86.0009 258.75 87.0589L259.539 87.5937C334.357 138.778 319.336 220.045 309.456 260.431C298.41 305.625 331.727 384.571 331.727 384.571H295.702C294.83 384.571 293.991 384.207 293.363 383.555C292.734 382.902 292.365 382.012 292.332 381.072C292.315 380.586 292.387 380.1 292.547 379.645C292.706 379.19 292.948 378.773 293.259 378.421C293.57 378.068 293.943 377.787 294.357 377.592C294.77 377.398 295.216 377.296 295.667 377.29L307.066 377.153C290.813 352.81 276.975 318.398 271.154 288.101C269.441 279.178 268.255 276.512 267.427 268.437C265.801 252.531 265.395 236.508 266.212 220.53" stroke="black" stroke-width="5.02" stroke-miterlimit="10"/>
<path d="M238.156 75.0922C235.187 73.6025 232.119 72.1587 228.952 70.7607C228.952 70.7607 231.989 58.3354 225.819 51.7655" stroke="black" stroke-width="5.02" stroke-miterlimit="10"/>
<path d="M187.801 66.1996C185.525 73.3501 185.592 81.4402 185.91 88.3805L194.194 87.6166" stroke="black" stroke-width="5.02" stroke-miterlimit="10"/>
<path d="M194.194 87.643C194.194 87.643 194.251 105.794 210.532 102.788C212.52 102.46 214.431 101.727 216.165 100.63C224.003 95.4542 223.362 83.0059 219.503 75.3818C218.342 73.09 211.042 60.2673 217.206 59.6027C224.109 58.8388 223.649 69.7821 223.419 70.7752H228.945" stroke="black" stroke-width="5.02" stroke-miterlimit="10"/>
<path d="M196.597 64.7256H196.57" stroke="black" stroke-width="5.02" stroke-miterlimit="10"/>
<path d="M181.45 65.1266C181.549 66.1121 182.377 66.41 183.177 66.4253H183.454C184.87 66.4253 186.339 66.3336 187.801 66.2C190.293 66.0044 192.771 65.6316 195.218 65.0846C195.671 64.9777 196.113 64.8592 196.57 64.7408C196.57 64.7408 196.57 64.7408 196.598 64.7408C196.775 64.7103 196.952 64.6797 197.122 64.6377C200.855 63.8478 204.53 62.7664 208.118 61.4024C212.874 59.569 217.53 57.4456 222.063 55.0427C222.417 54.8479 222.824 54.6417 223.196 54.4163C223.196 54.4163 223.196 54.3857 223.196 54.3743C223.967 52.6287 223.61 50.44 222.534 48.8739C221.429 47.1933 219.659 46.1352 217.839 45.4629C213.779 43.958 209.279 44.1834 205.137 45.4362C200.995 46.6891 197.204 48.9503 193.603 51.4522C190.983 53.2356 188.487 55.2219 186.134 57.3957C185.425 58.1596 184.795 58.9235 184.162 59.6875C183.208 60.8342 182.408 62.1201 181.786 63.5071C181.556 64.0101 181.441 64.5655 181.45 65.1266Z" fill="#F13F3F"/>
<path d="M208.118 61.4021C204.528 62.7665 200.85 63.8478 197.115 64.6373C196.935 64.6794 196.761 64.7099 196.591 64.7405H196.563C196.106 64.8589 195.664 64.9773 195.21 65.0843C192.764 65.6316 190.286 66.004 187.794 66.1996C186.332 66.3333 184.87 66.4097 183.446 66.425H183.17C182.37 66.425 181.542 66.1118 181.443 65.1263C181.432 64.5759 181.541 64.0304 181.761 63.5335C182.383 62.1465 183.183 60.8606 184.137 59.7139C187.546 55.4091 191.759 51.9064 196.173 48.8545C199.799 46.3412 203.611 44.099 207.764 42.827C211.917 41.5551 216.391 41.3526 220.452 42.8576C222.275 43.526 224.042 44.5841 225.16 46.2686C226.222 47.8308 226.576 50.0233 225.822 51.7651C225.781 51.8868 225.725 52.0022 225.656 52.1089C224.884 53.5222 223.447 54.3281 222.08 55.0424C217.542 57.446 212.88 59.5693 208.118 61.4021Z" stroke="black" stroke-width="5.02" stroke-miterlimit="10"/>
<path d="M208.118 61.4029C208.341 65.1232 208.168 71.5289 211.074 76.2653C212.089 77.8176 212.667 79.6533 212.738 81.5517C212.777 84.6724 211.885 88.7518 207.074 89.1338C203.339 89.4279 199.285 86.968 194.187 87.6365C194.187 87.6365 197.813 86.7732 197.466 82.4914" stroke="black" stroke-width="5.02" stroke-miterlimit="10"/>
<path d="M225.426 213.04C225.355 213.204 225.288 213.365 225.203 213.544L224.955 214.083L224.916 214.201L224.098 216.004C223.851 216.554 223.589 217.104 223.341 217.673C223.121 218.147 222.898 218.624 222.693 219.102C222.527 219.461 222.374 219.801 222.222 220.144L221.16 222.574C220.983 223.111 220.944 223.69 221.049 224.248C221.154 224.807 221.398 225.324 221.755 225.744C221.958 225.993 222.197 226.204 222.463 226.371C222.829 226.591 223.234 226.726 223.651 226.765C224.068 226.804 224.489 226.748 224.884 226.599C225.28 226.449 225.642 226.211 225.946 225.9C226.249 225.589 226.489 225.212 226.647 224.793L229.727 218.342L231.674 214.258L229.795 218.326L228.124 221.917C227.993 222.241 227.94 222.595 227.97 222.946C228 223.298 228.112 223.636 228.295 223.928C228.478 224.221 228.727 224.459 229.019 224.62C229.31 224.781 229.634 224.86 229.961 224.85C232.556 224.686 234.241 221.795 235.512 219.728C235.636 219.518 235.76 219.296 235.898 219.071C236.755 217.658 237.817 216.015 239.364 215.633C239.778 215.536 240.198 215.471 240.62 215.439C242.745 215.305 244.32 216.203 246.667 216.661C247.357 216.795 248.048 216.917 248.738 217.02" stroke="black" stroke-width="5.02" stroke-miterlimit="10"/>
<path d="M279.52 214.022L280.115 213.739C286.175 210.896 291.416 206.347 295.288 200.569C310.447 178.136 301.543 141.952 289.241 120.157C280.943 105.47 267.922 92.3305 253.924 83.9119" stroke="black" stroke-width="5.02" stroke-miterlimit="10"/>
<path d="M250.112 135.187L264.98 160.542C272.56 173.472 269.937 188.743 259.097 198.59C255.521 201.837 249.538 205.053 241.771 205.576C238.801 205.767 234.411 206.008 231.441 206.245C230.602 206.321 229.731 206.363 228.86 206.455C227.023 206.634 225.175 206.917 223.504 207.662C222.079 208.324 220.868 209.428 220.024 210.832C218.547 213.307 216.876 215.737 215.977 218.552C215.546 219.972 215.378 221.47 215.482 222.96C215.506 223.842 215.82 224.686 216.367 225.343C216.708 225.711 217.155 225.942 217.634 226C218.862 226.191 219.758 225.209 220.395 224.121C220.63 223.71 220.839 223.283 221.018 222.841C221.348 222.077 221.762 221.157 222.233 220.144C222.385 219.801 222.537 219.461 222.704 219.102C222.909 218.624 223.132 218.147 223.351 217.673C223.599 217.104 223.861 216.554 224.109 216.004C224.399 215.378 224.675 214.766 224.927 214.201C224.94 214.159 224.957 214.119 224.98 214.083C225.065 213.888 225.146 213.701 225.214 213.544C225.281 213.387 225.366 213.204 225.437 213.04V213.009C225.518 212.83 225.603 212.65 225.67 212.486" stroke="black" stroke-width="5.02" stroke-miterlimit="10"/>
<path d="M221.475 93.1063L224.445 100.986" stroke="black" stroke-width="5.02" stroke-miterlimit="10"/>
<path d="M241.75 205.577C241.75 205.577 250.791 213.025 250.101 228.418L280.104 213.739" stroke="black" stroke-width="5.02" stroke-miterlimit="10"/>
<path d="M250.112 228.419C250.112 228.419 247.524 232.827 245.279 228.419C243.035 224.011 240.599 215.451 240.599 215.451" stroke="black" stroke-width="5.02" stroke-miterlimit="10"/>
<path d="M301.855 184.801L315.977 180.661" stroke="black" stroke-width="5.02" stroke-miterlimit="10"/>
<path d="M234.432 241.348C234.432 241.348 228.339 232.868 223.521 234.117" stroke="black" stroke-width="5.02" stroke-miterlimit="10"/>
<path d="M235.877 219.072C237.717 219.922 239.287 221.334 240.393 223.133C241.499 224.933 242.094 227.042 242.104 229.202V231.265C242.104 232.024 242.383 232.753 242.882 233.29C243.379 233.827 244.055 234.13 244.759 234.13C245.463 234.13 246.139 233.827 246.636 233.29C247.134 232.753 247.414 232.024 247.414 231.265V229.202C247.404 226.485 246.778 223.812 245.592 221.415C244.405 219.018 242.694 216.971 240.606 215.451C240.184 215.484 239.764 215.549 239.35 215.646C237.795 216.02 236.733 217.659 235.877 219.072Z" fill="#F13F3F"/>
<path d="M215.085 222.738C215.029 224.075 215.117 225.415 215.347 226.73L243.208 385.579H248.848L220.526 225.672C220.429 225.161 220.378 224.642 220.374 224.121C219.74 225.21 218.841 226.191 217.613 226C217.133 225.943 216.687 225.711 216.345 225.343C215.798 224.687 215.485 223.842 215.46 222.96C215.329 222.899 215.203 222.825 215.085 222.738Z" fill="#F13F3F"/>
<path d="M235.877 219.072C237.717 219.922 239.287 221.334 240.393 223.133C241.499 224.933 242.094 227.042 242.104 229.202V231.265C242.104 232.024 242.383 232.753 242.882 233.29C243.379 233.827 244.055 234.13 244.759 234.13C245.463 234.13 246.139 233.827 246.636 233.29C247.134 232.753 247.414 232.024 247.414 231.265V229.202C247.404 226.485 246.778 223.812 245.592 221.415C244.405 219.018 242.694 216.971 240.606 215.451C240.184 215.484 239.764 215.549 239.35 215.646C237.795 216.02 236.733 217.659 235.877 219.072Z" stroke="black" stroke-width="5.02" stroke-miterlimit="10"/>
<path d="M215.085 222.738C215.029 224.075 215.117 225.415 215.347 226.73L243.067 384.77L248.671 384.59L220.537 225.691C220.44 225.18 220.389 224.661 220.385 224.14C219.751 225.229 218.852 226.211 217.623 226.02C217.144 225.962 216.697 225.73 216.356 225.363C215.809 224.706 215.495 223.861 215.471 222.979C215.335 222.913 215.206 222.832 215.085 222.738Z" stroke="black" stroke-width="5.02" stroke-miterlimit="10"/>
<path d="M331.752 384.59H140.345" stroke="black" stroke-width="5.02" stroke-miterlimit="10"/>
<path d="M190.562 71.1587C190.562 71.1587 195.164 68.9662 198.05 71.6438" stroke="black" stroke-width="4.66" stroke-miterlimit="10"/>
<path d="M193.471 76.326C194.191 76.1759 194.681 75.5307 194.565 74.8844C194.45 74.2381 193.772 73.8355 193.052 73.9857C192.333 74.1354 191.843 74.7809 191.958 75.4272C192.074 76.0735 192.751 76.4757 193.471 76.326Z" fill="black"/>
</svg>
